<svg viewBox="0 0 648 399" xmlns="http://www.w3.org/2000/svg"
     style="font-family:-apple-system,system-ui,sans-serif; background:white;">
  <text x="324" y="22" text-anchor="middle" font-size="13" font-weight="600" fill="#222">
    Aging Suppressor Genes — ISH Expression Across Mouse Brain Regions
  </text>
  <text x="324" y="38" text-anchor="middle" font-size="10" fill="#666">
    Allen Mouse Brain Atlas · expression energy (row-normalized per gene) · values annotated where &gt;0.5
  </text>
  <text x="324" y="52" text-anchor="middle" font-size="10" fill="#b07800">
    ▶ Choroid plexus highlighted: primary secretory hub for Kl, Fgf21, Igf1 into CSF
  </text>
  <defs><linearGradient id="cb1" x1="0" y1="1" x2="0" y2="0"><stop offset="0%" stop-color="rgb(180,210,255)"/><stop offset="50%" stop-color="rgb(255,255,255)"/><stop offset="100%" stop-color="rgb(255,80,80)"/></linearGradient></defs><rect x="580" y="95" width="14" height="224" fill="url(#cb1)" stroke="#ccc" stroke-width="0.5"/><text x="587" y="91" text-anchor="middle" font-size="8" fill="#555">high</text><text x="587" y="329" text-anchor="middle" font-size="8" fill="#555">low</text>
  <rect x="72" y="55" width="62" height="40" fill="#fff8e1" rx="3"/><text x="103" y="79" text-anchor="middle" font-size="9.5" fill="#b07800" font-weight="bold">Choroid</text><text x="103" y="91" text-anchor="middle" font-size="9.5" fill="#b07800" font-weight="bold">plexus</text><text x="165" y="93" text-anchor="middle" font-size="9.5" fill="#444">Isocortex<text x="165" y="87" text-anchor="middle" font-size="9.5" fill="#444">Isocortex</text><text x="227" y="93" text-anchor="middle" font-size="9.5" fill="#444">Hippocampus<text x="227" y="87" text-anchor="middle" font-size="9.5" fill="#444">Hippocampus</text><text x="289" y="93" text-anchor="middle" font-size="9.5" fill="#444">Cerebellum<text x="289" y="87" text-anchor="middle" font-size="9.5" fill="#444">Cerebellum</text><text x="351" y="93" text-anchor="middle" font-size="9.5" fill="#444">Hypothalamus<text x="351" y="87" text-anchor="middle" font-size="9.5" fill="#444">Hypothalamus</text><text x="413" y="93" text-anchor="middle" font-size="9.5" fill="#444">Striatum<text x="413" y="87" text-anchor="middle" font-size="9.5" fill="#444">Striatum</text><text x="475" y="93" text-anchor="middle" font-size="9.5" fill="#444">Olf. bulb<text x="475" y="87" text-anchor="middle" font-size="9.5" fill="#444">Olf. bulb</text><text x="537" y="93" text-anchor="middle" font-size="9.5" fill="#444">Thalamus<text x="537" y="87" text-anchor="middle" font-size="9.5" fill="#444">Thalamus</text>
  <rect x="72" y="95" width="62" height="28" fill="rgb(255,96,96)" stroke="white" stroke-width="1.5"/><text x="103" y="113" text-anchor="middle" font-size="8.5" fill="white">3.49</text><rect x="134" y="95" width="62" height="28" fill="rgb(193,218,255)" stroke="white" stroke-width="1.5"/><text x="165" y="113" text-anchor="middle" font-size="8.5" fill="#333">1.32</text><rect x="196" y="95" width="62" height="28" fill="rgb(255,167,167)" stroke="white" stroke-width="1.5"/><text x="227" y="113" text-anchor="middle" font-size="8.5" fill="#333">2.97</text><rect x="258" y="95" width="62" height="28" fill="rgb(255,80,80)" stroke="white" stroke-width="1.5"/><text x="289" y="113" text-anchor="middle" font-size="8.5" fill="white">3.61</text><rect x="320" y="95" width="62" height="28" fill="rgb(180,210,255)" stroke="white" stroke-width="1.5"/><text x="351" y="113" text-anchor="middle" font-size="8.5" fill="#333">1.09</text><rect x="382" y="95" width="62" height="28" fill="rgb(249,251,255)" stroke="white" stroke-width="1.5"/><text x="413" y="113" text-anchor="middle" font-size="8.5" fill="#333">2.26</text><rect x="444" y="95" width="62" height="28" fill="rgb(252,253,255)" stroke="white" stroke-width="1.5"/><text x="475" y="113" text-anchor="middle" font-size="8.5" fill="#333">2.31</text><rect x="506" y="95" width="62" height="28" fill="rgb(224,236,255)" stroke="white" stroke-width="1.5"/><text x="537" y="113" text-anchor="middle" font-size="8.5" fill="#333">1.83</text><rect x="72" y="123" width="62" height="28" fill="rgb(255,80,80)" stroke="white" stroke-width="1.5"/><text x="103" y="141" text-anchor="middle" font-size="8.5" fill="white">0.66</text><rect x="134" y="123" width="62" height="28" fill="rgb(201,222,255)" stroke="white" stroke-width="1.5"/><rect x="196" y="123" width="62" height="28" fill="rgb(198,220,255)" stroke="white" stroke-width="1.5"/><rect x="258" y="123" width="62" height="28" fill="rgb(208,227,255)" stroke="white" stroke-width="1.5"/><rect x="320" y="123" width="62" height="28" fill="rgb(180,210,255)" stroke="white" stroke-width="1.5"/><rect x="382" y="123" width="62" height="28" fill="rgb(189,215,255)" stroke="white" stroke-width="1.5"/><rect x="444" y="123" width="62" height="28" fill="rgb(255,90,90)" stroke="white" stroke-width="1.5"/><text x="475" y="141" text-anchor="middle" font-size="8.5" fill="white">0.64</text><rect x="506" y="123" width="62" height="28" fill="rgb(190,216,255)" stroke="white" stroke-width="1.5"/><rect x="72" y="151" width="62" height="28" fill="rgb(255,80,80)" stroke="white" stroke-width="1.5"/><text x="103" y="169" text-anchor="middle" font-size="8.5" fill="white">1.22</text><rect x="134" y="151" width="62" height="28" fill="rgb(206,225,255)" stroke="white" stroke-width="1.5"/><rect x="196" y="151" width="62" height="28" fill="rgb(198,221,255)" stroke="white" stroke-width="1.5"/><rect x="258" y="151" width="62" height="28" fill="rgb(191,216,255)" stroke="white" stroke-width="1.5"/><rect x="320" y="151" width="62" height="28" fill="rgb(189,215,255)" stroke="white" stroke-width="1.5"/><rect x="382" y="151" width="62" height="28" fill="rgb(180,210,255)" stroke="white" stroke-width="1.5"/><rect x="444" y="151" width="62" height="28" fill="rgb(255,144,144)" stroke="white" stroke-width="1.5"/><text x="475" y="169" text-anchor="middle" font-size="8.5" fill="white">1.01</text><rect x="506" y="151" width="62" height="28" fill="rgb(184,212,255)" stroke="white" stroke-width="1.5"/><rect x="72" y="179" width="62" height="28" fill="rgb(255,231,231)" stroke="white" stroke-width="1.5"/><rect x="134" y="179" width="62" height="28" fill="rgb(233,242,255)" stroke="white" stroke-width="1.5"/><rect x="196" y="179" width="62" height="28" fill="rgb(215,231,255)" stroke="white" stroke-width="1.5"/><rect x="258" y="179" width="62" height="28" fill="rgb(247,250,255)" stroke="white" stroke-width="1.5"/><rect x="320" y="179" width="62" height="28" fill="rgb(180,210,255)" stroke="white" stroke-width="1.5"/><rect x="382" y="179" width="62" height="28" fill="rgb(189,215,255)" stroke="white" stroke-width="1.5"/><rect x="444" y="179" width="62" height="28" fill="rgb(255,80,80)" stroke="white" stroke-width="1.5"/><text x="475" y="197" text-anchor="middle" font-size="8.5" fill="white">0.23</text><rect x="506" y="179" width="62" height="28" fill="rgb(183,211,255)" stroke="white" stroke-width="1.5"/><rect x="72" y="207" width="62" height="28" fill="rgb(255,80,80)" stroke="white" stroke-width="1.5"/><text x="103" y="225" text-anchor="middle" font-size="8.5" fill="white">0.25</text><rect x="134" y="207" width="62" height="28" fill="rgb(255,149,149)" stroke="white" stroke-width="1.5"/><text x="165" y="225" text-anchor="middle" font-size="8.5" fill="white">0.20</text><rect x="196" y="207" width="62" height="28" fill="rgb(255,244,244)" stroke="white" stroke-width="1.5"/><rect x="258" y="207" width="62" height="28" fill="rgb(255,238,238)" stroke="white" stroke-width="1.5"/><rect x="320" y="207" width="62" height="28" fill="rgb(183,212,255)" stroke="white" stroke-width="1.5"/><rect x="382" y="207" width="62" height="28" fill="rgb(180,210,255)" stroke="white" stroke-width="1.5"/><rect x="444" y="207" width="62" height="28" fill="rgb(255,213,213)" stroke="white" stroke-width="1.5"/><rect x="506" y="207" width="62" height="28" fill="rgb(228,238,255)" stroke="white" stroke-width="1.5"/><rect x="72" y="235" width="62" height="28" fill="rgb(255,252,252)" stroke="white" stroke-width="1.5"/><text x="103" y="253" text-anchor="middle" font-size="8.5" fill="#333">0.91</text><rect x="134" y="235" width="62" height="28" fill="rgb(255,80,80)" stroke="white" stroke-width="1.5"/><text x="165" y="253" text-anchor="middle" font-size="8.5" fill="white">1.37</text><rect x="196" y="235" width="62" height="28" fill="rgb(255,125,125)" stroke="white" stroke-width="1.5"/><text x="227" y="253" text-anchor="middle" font-size="8.5" fill="white">1.24</text><rect x="258" y="235" width="62" height="28" fill="rgb(255,161,161)" stroke="white" stroke-width="1.5"/><text x="289" y="253" text-anchor="middle" font-size="8.5" fill="#333">1.15</text><rect x="320" y="235" width="62" height="28" fill="rgb(180,210,255)" stroke="white" stroke-width="1.5"/><rect x="382" y="235" width="62" height="28" fill="rgb(220,234,255)" stroke="white" stroke-width="1.5"/><text x="413" y="253" text-anchor="middle" font-size="8.5" fill="#333">0.69</text><rect x="444" y="235" width="62" height="28" fill="rgb(221,234,255)" stroke="white" stroke-width="1.5"/><text x="475" y="253" text-anchor="middle" font-size="8.5" fill="#333">0.70</text><rect x="506" y="235" width="62" height="28" fill="rgb(218,233,255)" stroke="white" stroke-width="1.5"/><text x="537" y="253" text-anchor="middle" font-size="8.5" fill="#333">0.68</text><rect x="72" y="263" width="62" height="28" fill="rgb(255,146,146)" stroke="white" stroke-width="1.5"/><text x="103" y="281" text-anchor="middle" font-size="8.5" fill="white">1.30</text><rect x="134" y="263" width="62" height="28" fill="rgb(191,216,255)" stroke="white" stroke-width="1.5"/><rect x="196" y="263" width="62" height="28" fill="rgb(196,219,255)" stroke="white" stroke-width="1.5"/><rect x="258" y="263" width="62" height="28" fill="rgb(255,171,171)" stroke="white" stroke-width="1.5"/><text x="289" y="281" text-anchor="middle" font-size="8.5" fill="#333">1.19</text><rect x="320" y="263" width="62" height="28" fill="rgb(187,214,255)" stroke="white" stroke-width="1.5"/><rect x="382" y="263" width="62" height="28" fill="rgb(180,210,255)" stroke="white" stroke-width="1.5"/><rect x="444" y="263" width="62" height="28" fill="rgb(255,83,83)" stroke="white" stroke-width="1.5"/><text x="475" y="281" text-anchor="middle" font-size="8.5" fill="white">1.57</text><rect x="506" y="263" width="62" height="28" fill="rgb(255,80,80)" stroke="white" stroke-width="1.5"/><text x="537" y="281" text-anchor="middle" font-size="8.5" fill="white">1.58</text><rect x="72" y="291" width="62" height="28" fill="rgb(255,188,188)" stroke="white" stroke-width="1.5"/><rect x="134" y="291" width="62" height="28" fill="rgb(255,215,215)" stroke="white" stroke-width="1.5"/><rect x="196" y="291" width="62" height="28" fill="rgb(255,247,247)" stroke="white" stroke-width="1.5"/><rect x="258" y="291" width="62" height="28" fill="rgb(200,222,255)" stroke="white" stroke-width="1.5"/><rect x="320" y="291" width="62" height="28" fill="rgb(226,237,255)" stroke="white" stroke-width="1.5"/><rect x="382" y="291" width="62" height="28" fill="rgb(180,210,255)" stroke="white" stroke-width="1.5"/><rect x="444" y="291" width="62" height="28" fill="rgb(255,80,80)" stroke="white" stroke-width="1.5"/><text x="475" y="309" text-anchor="middle" font-size="8.5" fill="white">0.33</text><rect x="506" y="291" width="62" height="28" fill="rgb(212,229,255)" stroke="white" stroke-width="1.5"/>
  <text x="66" y="113" text-anchor="end" font-size="11" fill="#c0392b" font-weight="600" font-family="ui-monospace,Menlo,monospace">Kl</text><text x="66" y="141" text-anchor="end" font-size="11" fill="#e67e22" font-weight="600" font-family="ui-monospace,Menlo,monospace">Fgf21</text><text x="66" y="169" text-anchor="end" font-size="11" fill="#27ae60" font-weight="600" font-family="ui-monospace,Menlo,monospace">Igf1</text><text x="66" y="197" text-anchor="end" font-size="11" fill="#8e44ad" font-weight="600" font-family="ui-monospace,Menlo,monospace">Foxo3</text><text x="66" y="225" text-anchor="end" font-size="11" fill="#2980b9" font-weight="600" font-family="ui-monospace,Menlo,monospace">Sirt1</text><text x="66" y="253" text-anchor="end" font-size="11" fill="#16a085" font-weight="600" font-family="ui-monospace,Menlo,monospace">Tert</text><text x="66" y="281" text-anchor="end" font-size="11" fill="#d35400" font-weight="600" font-family="ui-monospace,Menlo,monospace">Gdf11</text><text x="66" y="309" text-anchor="end" font-size="11" fill="#7f8c8d" font-weight="600" font-family="ui-monospace,Menlo,monospace">Gdf15</text>
</svg>